<svg data-v-423bf9ae="" xmlns="http://www.w3.org/2000/svg" viewBox="0 0 260 90" class="iconLeft"><!----><!----><!----><g data-v-423bf9ae="" id="e61f566e-eba3-4a78-93a6-04547d36fd01" fill="black" transform="matrix(6.1224488604322,0,0,6.1224488604322,103.78912796497784,10.714287480008146)"><path d="M2.56 10.01L2.56 10.50L6.48 10.50L6.62 9.87L5.29 9.60L5.29 6.03L8.04 1.58L9.17 1.19L9.17 0.70L6.24 0.70L6.10 1.33L7.14 1.50L4.82 5.28L2.38 1.47L3.36 1.19L3.36 0.70L-0.07 0.70L-0.21 1.33L0.88 1.60L3.89 6.33L3.89 9.60ZM15.72 9.73L12.04 9.73L12.04 5.80L14.41 5.87L14.88 6.79L15.27 6.65L15.27 4.17L14.78 4.03L14.41 4.97L12.04 5.03L12.04 1.47L15.46 1.47L15.90 3.14L16.60 3.00L16.60 0.70L9.45 0.70L9.31 1.33L10.64 1.60L10.64 9.60L9.31 10.01L9.31 10.50L16.90 10.50L16.90 8.26L16.17 8.11ZM18.16 0.70L18.02 1.33L19.35 1.60L19.35 9.60L18.02 10.01L18.02 10.50L22.22 10.50L22.36 9.87L20.75 9.60L20.75 6.69L21.64 6.69C23.35 6.69 25.51 6.24 25.51 3.75C25.51 0.91 23.35 0.70 21.64 0.70ZM21.64 1.47C22.97 1.47 24.04 2.00 24.04 3.75C24.04 5.73 22.82 5.92 21.64 5.92L20.75 5.92L20.75 1.47Z"></path></g><!----><g data-v-423bf9ae="" id="08f4a891-4682-4c89-a3df-99414d8ca52a" transform="matrix(1.5000667601732967,0,0,1.5000667601732967,-5.25206027429509,-3.0014692003340784)" stroke="none" fill="black"><path d="M30.228 35.92c-.038 0-.07.012-.1.017h-.006l-1.413.176-.311.04-.536.068-.275.031c-.288.036-.583.073-.857.114-.209.024-.435.054-.655.082-1.13-2.289-2.317-4.5-3.54-6.581l-1.53-3.646a1 1 0 00-1.294-.541l-.72.288-1.634-10.99a1 1 0 00-.486-.716L8.082 9.136a1 1 0 00-1.47.607L4.034 19.42a1 1 0 00.167.859L10.92 29.2l-.682.273a1 1 0 00-.55 1.315l1.521 3.622c1.164 4.352 2.406 8.274 3.791 11.99V62h2v-.556A3.959 3.959 0 0019 62h15a1 1 0 00.99-1.138A15.175 15.175 0 0034.579 59L37 58.23l11.256 3.582a3.994 3.994 0 001.21.188H55a3.959 3.959 0 002-.556V62h2V44.01a7 7 0 00-6.135-6.942l-9-1.13A.993.993 0 0143 34.95v-2.174a11.792 11.792 0 003.951-7.976l.237-.82a3.987 3.987 0 002.028-7.307A12.172 12.172 0 0045.6 5.275c-.209-.187-.44-.384-.66-.552a12.923 12.923 0 00-12.635-1.834L28.8 4.263c-3.678.117-5.494 3.512-5.661 6.873a21.6 21.6 0 00.769 6.354 3.954 3.954 0 001.777 6.271 21.3 21.3 0 001.915 3.852 11.8 11.8 0 003.4 5.163v2.174a.984.984 0 01-.772.97zM6.092 19.465l1.7-6.377 2.854 6.8a1.935 1.935 0 00-.274 1.984A2.039 2.039 0 0013 22.957a2 2 0 001.11-1.09 1.967 1.967 0 000-1.53 2.018 2.018 0 00-1.61-1.207l-2.842-6.76 5.8 3.379 1.632 10.983-4.242 1.7zm5.833 11.488l.952-.381.215-.086 6.453-2.586.78 1.856-7.625 3.05zm5 14.879c-1.3-3.46-2.467-7.109-3.565-11.13l7.853-3.143a102.929 102.929 0 013.39 6.408 111.252 111.252 0 014.153 9.7c.053.14.1.283.156.424l-.627-.063-5.836-2.918a.988.988 0 00-.612-.091l-.618.1a96.152 96.152 0 01-1.614-4.221l-1.885.668a99.962 99.962 0 001.479 3.889zM31.438 60l1.229-.391c.036.132.077.26.11.391zm-6.295-.095a2.1 2.1 0 01-.613.095H19a2 2 0 01-2-2v-2.323l4.1-1.64 6.654 1.253 5.946 1.891zM57 55v3a2 2 0 01-2 2h-5.534a2.019 2.019 0 01-.607-.094L28.3 53.365a1.132 1.132 0 00-.118-.03l-7-1.318A1.044 1.044 0 0021 52a1.016 1.016 0 00-.372.071L17 53.523v-5.676l4.844-.807 5.709 2.86a1 1 0 00.347.1L57 52.905zm0-4.1l-10.461-1.051 5.617-2.809 4.844.807zM45 19.8a.2.2 0 01-.2.2h-4.6a.2.2 0 01-.2-.2v-1.6a.2.2 0 01.2-.2h4.6a.2.2 0 01.2.2zm0-3.78c-.067-.006-.132-.02-.2-.02h-4.6a2.2 2.2 0 00-1.84 1h-2.72a2.2 2.2 0 00-1.84-1h-4.088A12.853 12.853 0 0031 10.4V9h1.084c1.639 0 2.951 1.2 4.34 2.465C37.791 12.711 39.2 14 41 14h4zM34 18.2v1.6a.2.2 0 01-.2.2h-4.6a.2.2 0 01-.2-.2v-1.6a.2.2 0 01.2-.2h4.6a.2.2 0 01.2.2zM49 20a2 2 0 01-2 2v-4a2 2 0 012 2zm-22-1.8V22a2 2 0 110-4zm.442-2.2H27a3.959 3.959 0 00-1.328.244 18.324 18.324 0 01-.533-5c.114-2.3 1.194-4.98 3.861-4.98a.991.991 0 00.365-.07l3.669-1.439a10.919 10.919 0 0110.679 1.55c.19.144.379.307.55.46a10.122 10.122 0 013.019 9.264C47.187 16.022 47.1 16 47 16v-3a1 1 0 00-1-1h-5c-1.022 0-2.093-.978-3.228-2.013C36.237 8.587 34.5 7 32.084 7H30a1 1 0 00-1 1v2.4a10.861 10.861 0 01-1.558 5.6zM29 23.918V21.98c.067.006.132.02.2.02h4.6a2.2 2.2 0 002.2-2.2V19h2v.8a2.2 2.2 0 002.2 2.2h4.6c.068 0 .133-.014.2-.02v1.938a9.825 9.825 0 01-3.544 7.567A6.551 6.551 0 0137.271 33h-.542a6.551 6.551 0 01-4.185-1.515A9.825 9.825 0 0129 23.918zm13.391 13.55a6.657 6.657 0 01-10.566-.152A2.989 2.989 0 0033 34.95v-.814a8.543 8.543 0 003.729.864h.542A8.543 8.543 0 0041 34.136v.814a2.987 2.987 0 001.391 2.518zM37.18 42a8.7 8.7 0 007.283-3.967l8.155 1.02A5 5 0 0157 44.01v1.81l-4.835-.806a.988.988 0 00-.612.091l-5.836 2.918L37 48.9l-5.877-.588c-.164-.45-.328-.9-.5-1.347a113.64 113.64 0 00-3.635-8.61c.191-.023.38-.048.565-.074l.664-.082h.041q.215-.026.423-.054l1.167-.147A8.677 8.677 0 0037.18 42zM33 27.869l-.154-.024.3-1.977.153.024a14.246 14.246 0 002.563.088c.291-.015.6-.022.905-.022h.456c.308 0 .614.007.906.022a14.153 14.153 0 002.563-.089l.152-.023.3 1.977-.144.023a14.49 14.49 0 01-2.065.132c-.3 0-.606-.007-.9-.022-.26-.014-.531-.02-.8-.02h-.456c-.273 0-.544.006-.8.02A16.256 16.256 0 0133 27.869zM18.956 39.012l-1.9.634q-.323-.962-.627-1.931l1.908-.6q.303.952.619 1.897z"></path></g><!----></svg>