<svg data-v-fde0c5aa="" xmlns="http://www.w3.org/2000/svg" viewBox="0 0 300 300" class="font"><!----><defs data-v-fde0c5aa=""><!----></defs><rect data-v-fde0c5aa="" fill="transparent" x="0" y="0" width="300px" height="300px" class="logo-background-square"></rect><defs data-v-fde0c5aa=""><linearGradient data-v-fde0c5aa="" gradientTransform="rotate(25)" id="987c8265-fc78-4aa6-9ae8-22a7d9b7fc65" x1="0%" y1="0%" x2="100%" y2="0%"><stop data-v-fde0c5aa="" offset="0%" stop-color="#8C48D2" stop-opacity="1"></stop><stop data-v-fde0c5aa="" offset="100%" stop-color="#CF705A" stop-opacity="1"></stop></linearGradient></defs><g data-v-fde0c5aa="" id="03169be0-8435-4d8c-b9a7-94cb44296c22" fill="url(#987c8265-fc78-4aa6-9ae8-22a7d9b7fc65)" transform="matrix(8.553654971746841,0,0,8.553654971746841,41.796267615444094,102.09953144444509)"><path d="M2.56 10.01L2.56 10.50L6.48 10.50L6.62 9.87L5.29 9.60L5.29 6.03L8.04 1.58L9.17 1.19L9.17 0.70L6.24 0.70L6.10 1.33L7.14 1.50L4.82 5.28L2.38 1.47L3.36 1.19L3.36 0.70L-0.07 0.70L-0.21 1.33L0.88 1.60L3.89 6.33L3.89 9.60ZM15.72 9.73L12.04 9.73L12.04 5.80L14.41 5.87L14.88 6.79L15.27 6.65L15.27 4.17L14.78 4.03L14.41 4.97L12.04 5.03L12.04 1.47L15.46 1.47L15.90 3.14L16.60 3.00L16.60 0.70L9.45 0.70L9.31 1.33L10.64 1.60L10.64 9.60L9.31 10.01L9.31 10.50L16.90 10.50L16.90 8.26L16.17 8.11ZM18.16 0.70L18.02 1.33L19.35 1.60L19.35 9.60L18.02 10.01L18.02 10.50L22.22 10.50L22.36 9.87L20.75 9.60L20.75 6.69L21.64 6.69C23.35 6.69 25.51 6.24 25.51 3.75C25.51 0.91 23.35 0.70 21.64 0.70ZM21.64 1.47C22.97 1.47 24.04 2.00 24.04 3.75C24.04 5.73 22.82 5.92 21.64 5.92L20.75 5.92L20.75 1.47Z"></path></g><!----><!----></svg>