<svg data-v-423bf9ae="" xmlns="http://www.w3.org/2000/svg" viewBox="0 0 157.46938048636417 60" class="font"><!----><!----><!----><g data-v-423bf9ae="" id="9cb56dbd-71a5-4c4d-8256-3f8402d60da9" fill="white" transform="matrix(6.1224488604322,0,0,6.1224488604322,1.2857176256223681,-4.285714427340487)"><path d="M2.56 10.01L2.56 10.50L6.48 10.50L6.62 9.87L5.29 9.60L5.29 6.03L8.04 1.58L9.17 1.19L9.17 0.70L6.24 0.70L6.10 1.33L7.14 1.50L4.82 5.28L2.38 1.47L3.36 1.19L3.36 0.70L-0.07 0.70L-0.21 1.33L0.88 1.60L3.89 6.33L3.89 9.60ZM15.72 9.73L12.04 9.73L12.04 5.80L14.41 5.87L14.88 6.79L15.27 6.65L15.27 4.17L14.78 4.03L14.41 4.97L12.04 5.03L12.04 1.47L15.46 1.47L15.90 3.14L16.60 3.00L16.60 0.70L9.45 0.70L9.31 1.33L10.64 1.60L10.64 9.60L9.31 10.01L9.31 10.50L16.90 10.50L16.90 8.26L16.17 8.11ZM18.16 0.70L18.02 1.33L19.35 1.60L19.35 9.60L18.02 10.01L18.02 10.50L22.22 10.50L22.36 9.87L20.75 9.60L20.75 6.69L21.64 6.69C23.35 6.69 25.51 6.24 25.51 3.75C25.51 0.91 23.35 0.70 21.64 0.70ZM21.64 1.47C22.97 1.47 24.04 2.00 24.04 3.75C24.04 5.73 22.82 5.92 21.64 5.92L20.75 5.92L20.75 1.47Z"></path></g><!----><!----></svg>